<?xml version="1.0" standalone="no"?>
<!DOCTYPE svg PUBLIC "-//W3C//DTD SVG 20010904//EN"
 "http://www.w3.org/TR/2001/REC-SVG-20010904/DTD/svg10.dtd">
<svg version="1.0" xmlns="http://www.w3.org/2000/svg"
 width="1024.000000pt" height="1024.000000pt" viewBox="0 0 1024.000000 1024.000000"
 preserveAspectRatio="xMidYMid meet">

<g transform="translate(0.000000,1024.000000) scale(0.100000,-0.100000)"
fill="#000000" stroke="none">
<path d="M5785 8016 c-95 -42 -83 -183 18 -220 23 -8 78 -25 121 -37 260 -70
560 -201 781 -342 238 -150 522 -406 698 -627 209 -263 368 -558 471 -879 84
-261 120 -510 114 -786 l-3 -140 -24 75 c-33 100 -129 285 -199 384 -128 182
-343 362 -543 455 -316 148 -681 148 -998 0 -126 -60 -217 -126 -312 -227
-120 -128 -161 -229 -108 -265 23 -17 42 -13 124 23 126 55 328 80 480 61 407
-52 721 -328 831 -731 25 -90 25 -289 0 -385 -41 -161 -144 -323 -299 -472
-363 -348 -903 -581 -1552 -669 -162 -23 -657 -26 -805 -6 -350 48 -688 129
-995 239 -126 45 -332 92 -450 104 -133 13 -259 2 -390 -33 -99 -27 -141 -61
-125 -104 21 -55 171 -243 306 -383 l91 -95 69 31 c194 86 429 113 673 77 58
-8 196 -35 306 -59 275 -60 397 -82 555 -100 976 -114 1958 184 2579 780 134
129 164 146 228 131 39 -10 90 -67 98 -109 12 -64 -21 -112 -214 -305 -301
-304 -589 -499 -951 -645 -649 -264 -1289 -314 -2035 -161 -368 75 -542 94
-689 75 -88 -12 -196 -45 -196 -60 0 -12 169 -111 310 -181 492 -245 1064
-364 1593 -330 896 58 1709 474 2258 1155 362 450 585 1000 640 1578 15 161 6
573 -15 712 -98 644 -410 1239 -897 1710 -365 354 -810 601 -1319 733 -152 40
-188 45 -225 28z"/>
<path d="M4000 7914 c-459 -56 -861 -269 -1174 -622 -257 -292 -450 -615 -587
-987 -36 -99 -103 -334 -123 -435 -27 -132 -55 -380 -61 -540 -7 -162 7 -439
25 -502 16 -55 70 -98 124 -98 90 0 210 64 251 134 18 31 29 73 40 162 24 181
51 305 101 457 109 335 266 603 495 845 33 34 55 62 50 62 -23 0 -122 105
-148 158 -24 50 -28 69 -28 147 0 75 4 98 24 135 50 95 124 149 220 157 102 9
179 -26 239 -109 l33 -47 -64 6 c-55 5 -72 2 -111 -17 -102 -49 -103 -167 -2
-236 l37 -25 103 64 c275 173 507 248 766 249 113 1 138 -3 265 -37 103 -27
152 -36 185 -32 25 3 108 35 188 72 91 42 175 73 230 85 128 29 351 26 490 -5
12 -3 22 -11 22 -18 0 -7 12 -37 26 -65 30 -60 87 -105 158 -124 52 -14 52
-16 11 -121 -40 -102 -88 -170 -190 -272 -163 -164 -318 -240 -640 -314 -382
-88 -484 -118 -630 -186 -147 -68 -271 -153 -388 -264 -92 -88 -106 -127 -61
-180 38 -45 77 -42 156 13 130 91 225 153 288 188 74 40 228 103 277 113 l33
6 -40 -88 c-84 -191 -115 -352 -107 -561 7 -190 40 -303 129 -439 99 -151 235
-252 403 -298 90 -25 299 -30 415 -11 183 30 372 94 540 182 208 111 370 251
370 321 0 19 -7 48 -17 63 -36 61 -118 88 -502 160 -454 87 -567 118 -738 204
-92 45 -224 139 -277 195 -29 30 -29 32 -18 82 7 28 30 97 53 155 32 81 45
105 62 109 121 26 293 71 351 92 378 135 624 377 748 734 30 88 33 103 33 229
0 124 -2 139 -25 184 -34 67 -89 110 -184 146 -45 17 -111 42 -148 56 -89 34
-142 71 -257 178 -124 117 -180 163 -267 219 -177 114 -400 203 -620 248 -86
17 -150 22 -304 24 -107 2 -211 1 -230 -1z m648 -708 c77 -40 103 -122 60
-186 -28 -42 -61 -60 -108 -60 -47 0 -80 18 -107 59 -71 106 44 245 155 187z"/>
<path d="M5032 6674 c-28 -14 -57 -34 -63 -45 -17 -33 -7 -72 24 -89 26 -14
31 -13 90 19 105 57 128 89 89 124 -26 24 -79 20 -140 -9z"/>
<path d="M5355 6656 c-70 -30 -205 -216 -205 -283 0 -12 9 -32 20 -43 42 -42
86 -17 131 73 17 34 58 89 90 122 71 74 76 105 22 134 -26 13 -21 13 -58 -3z"/>
<path d="M4705 6567 c-180 -68 -289 -184 -227 -240 32 -29 65 -20 132 33 35
28 93 64 129 81 135 61 146 72 121 117 -21 36 -74 39 -155 9z"/>
<path d="M4931 6454 c-58 -29 -159 -117 -203 -178 -36 -51 -38 -99 -3 -122 37
-24 66 -11 121 54 47 56 75 81 174 154 50 38 61 69 34 99 -23 26 -60 24 -123
-7z"/>
<path d="M3947 5278 c-59 -46 -26 -148 48 -148 74 0 114 89 62 138 -26 25 -83
30 -110 10z"/>
<path d="M3534 5180 c-60 -25 -73 -112 -25 -161 48 -47 118 -35 150 28 38 74
-48 166 -125 133z"/>
<path d="M3989 4841 l-29 -29 0 -147 0 -147 29 -29 c20 -20 39 -29 61 -29 22
0 41 9 61 29 l29 29 0 147 0 147 -29 29 c-20 20 -39 29 -61 29 -22 0 -41 -9
-61 -29z"/>
<path d="M3527 4650 c-48 -38 -44 -130 7 -165 29 -21 89 -19 119 5 76 60 34
180 -63 180 -22 0 -48 -8 -63 -20z"/>
<path d="M6683 4526 c-17 -8 -71 -49 -120 -91 -247 -213 -539 -363 -879 -450
-294 -76 -524 -101 -849 -92 -444 13 -692 68 -1289 288 -416 154 -567 185
-836 176 -124 -4 -176 -10 -260 -32 -180 -47 -220 -74 -220 -151 0 -51 83
-224 128 -267 l29 -28 83 30 c179 66 376 92 540 72 164 -20 237 -39 555 -146
450 -151 666 -203 995 -240 172 -19 504 -22 675 -5 551 53 1050 237 1420 524
80 63 193 174 211 208 30 58 8 151 -46 190 -35 25 -98 31 -137 14z"/>
</g>
</svg>
